{
    "asset" : {
        "generator" : "Khronos glTF Blender I/O v0.9.33",
        "version" : "2.0"
    },
    "scene" : 0,
    "scenes" : [
        {
            "name" : "Scene",
            "nodes" : [
                8
            ]
        }
    ],
    "nodes" : [
        {
            "mesh" : 0,
            "name" : "Hand.Left",
            "translation" : [
                2.361936569213867,
                4.1239118576049805,
                -1.38374924659729
            ]
        },
        {
            "children" : [
                0
            ],
            "mesh" : 1,
            "name" : "Arm.Left",
            "translation" : [
                1.5674304962158203,
                -13.005779266357422,
                0.6208765506744385
            ]
        },
        {
            "mesh" : 2,
            "name" : "Hand.Right",
            "translation" : [
                -2.2638540267944336,
                4.031820297241211,
                -1.388763666152954
            ]
        },
        {
            "children" : [
                2
            ],
            "mesh" : 3,
            "name" : "Arm.Right",
            "translation" : [
                -1.617798924446106,
                -12.994562149047852,
                0.5424501895904541
            ]
        },
        {
            "mesh" : 4,
            "name" : "Visor",
            "translation" : [
                0.0850338339805603,
                -1.516403317451477,
                -0.4835011959075928
            ]
        },
        {
            "children" : [
                4
            ],
            "mesh" : 5,
            "name" : "Helmet",
            "translation" : [
                -0.008611619472503662,
                -12.903984069824219,
                -0.17505435645580292
            ]
        },
        {
            "mesh" : 6,
            "name" : "Leg.Left",
            "translation" : [
                0.7068752646446228,
                -8.125955581665039,
                -0.6015726327896118
            ]
        },
        {
            "mesh" : 7,
            "name" : "Leg.Right",
            "translation" : [
                -0.7395727634429932,
                -8.13320255279541,
                -0.5901476144790649
            ]
        },
        {
            "children" : [
                1,
                3,
                5,
                6,
                7
            ],
            "mesh" : 8,
            "name" : "Body",
            "rotation" : [
                1,
                0,
                0,
                -0.00011658668518066406
            ]
        }
    ],
    "materials" : [
        {
            "doubleSided" : true,
            "name" : "Hand",
            "pbrMetallicRoughness" : {
                "baseColorFactor" : [
                    0.800000011920929,
                    0.800000011920929,
                    0.800000011920929,
                    1
                ],
                "metallicFactor" : 0,
                "roughnessFactor" : 0.5
            }
        },
        {
            "doubleSided" : true,
            "name" : "Arm",
            "pbrMetallicRoughness" : {
                "baseColorFactor" : [
                    0.800000011920929,
                    0.800000011920929,
                    0.800000011920929,
                    1
                ],
                "metallicFactor" : 0,
                "roughnessFactor" : 0.5
            }
        },
        {
            "doubleSided" : true,
            "name" : "Glass",
            "pbrMetallicRoughness" : {
                "baseColorFactor" : [
                    0.800000011920929,
                    0.800000011920929,
                    0.800000011920929,
                    1
                ],
                "metallicFactor" : 0,
                "roughnessFactor" : 0.5
            }
        },
        {
            "doubleSided" : true,
            "name" : "Helmet",
            "pbrMetallicRoughness" : {
                "baseColorFactor" : [
                    0.800000011920929,
                    0.800000011920929,
                    0.800000011920929,
                    1
                ],
                "metallicFactor" : 0,
                "roughnessFactor" : 0.5
            }
        },
        {
            "doubleSided" : true,
            "name" : "Leg",
            "pbrMetallicRoughness" : {
                "baseColorFactor" : [
                    0.800000011920929,
                    0.800000011920929,
                    0.800000011920929,
                    1
                ],
                "metallicFactor" : 0,
                "roughnessFactor" : 0.5
            }
        },
        {
            "doubleSided" : true,
            "name" : "Body",
            "pbrMetallicRoughness" : {
                "baseColorFactor" : [
                    0.800000011920929,
                    0.800000011920929,
                    0.800000011920929,
                    1
                ],
                "metallicFactor" : 0,
                "roughnessFactor" : 0.5
            }
        }
    ],
    "meshes" : [
        {
            "name" : "hands",
            "primitives" : [
                {
                    "attributes" : {
                        "POSITION" : 0,
                        "NORMAL" : 1,
                        "TEXCOORD_0" : 2
                    },
                    "indices" : 3,
                    "material" : 0
                }
            ]
        },
        {
            "name" : "Arms",
            "primitives" : [
                {
                    "attributes" : {
                        "POSITION" : 4,
                        "NORMAL" : 5,
                        "TEXCOORD_0" : 6
                    },
                    "indices" : 7,
                    "material" : 1
                }
            ]
        },
        {
            "name" : "hands.001",
            "primitives" : [
                {
                    "attributes" : {
                        "POSITION" : 8,
                        "NORMAL" : 9,
                        "TEXCOORD_0" : 10
                    },
                    "indices" : 11,
                    "material" : 0
                }
            ]
        },
        {
            "name" : "Arms.001",
            "primitives" : [
                {
                    "attributes" : {
                        "POSITION" : 12,
                        "NORMAL" : 13,
                        "TEXCOORD_0" : 14
                    },
                    "indices" : 15,
                    "material" : 1
                }
            ]
        },
        {
            "name" : "Visor",
            "primitives" : [
                {
                    "attributes" : {
                        "POSITION" : 16,
                        "NORMAL" : 17,
                        "TEXCOORD_0" : 18
                    },
                    "indices" : 19,
                    "material" : 2
                }
            ]
        },
        {
            "name" : "Helmet",
            "primitives" : [
                {
                    "attributes" : {
                        "POSITION" : 20,
                        "NORMAL" : 21,
                        "TEXCOORD_0" : 22
                    },
                    "indices" : 23,
                    "material" : 3
                }
            ]
        },
        {
            "name" : "Legs",
            "primitives" : [
                {
                    "attributes" : {
                        "POSITION" : 24,
                        "NORMAL" : 25,
                        "TEXCOORD_0" : 26
                    },
                    "indices" : 27,
                    "material" : 4
                }
            ]
        },
        {
            "name" : "Legs.001",
            "primitives" : [
                {
                    "attributes" : {
                        "POSITION" : 28,
                        "NORMAL" : 29,
                        "TEXCOORD_0" : 30
                    },
                    "indices" : 31,
                    "material" : 4
                }
            ]
        },
        {
            "name" : "Body",
            "primitives" : [
                {
                    "attributes" : {
                        "POSITION" : 32,
                        "NORMAL" : 33,
                        "TEXCOORD_0" : 34
                    },
                    "indices" : 35,
                    "material" : 5
                }
            ]
        }
    ],
    "accessors" : [
        {
            "bufferView" : 0,
            "componentType" : 5126,
            "count" : 2480,
            "max" : [
                0.06492400169372559,
                1.5369043350219727,
                0.3301677107810974
            ],
            "min" : [
                -0.8222880363464355,
                -0.18686962127685547,
                -0.9570653438568115
            ],
            "type" : "VEC3"
        },
        {
            "bufferView" : 1,
            "componentType" : 5126,
            "count" : 2480,
            "type" : "VEC3"
        },
        {
            "bufferView" : 2,
            "componentType" : 5126,
            "count" : 2480,
            "type" : "VEC2"
        },
        {
            "bufferView" : 3,
            "componentType" : 5123,
            "count" : 9675,
            "type" : "SCALAR"
        },
        {
            "bufferView" : 4,
            "componentType" : 5126,
            "count" : 761,
            "max" : [
                2.3433964252471924,
                4.285853385925293,
                0.850710391998291
            ],
            "min" : [
                -1.4606895446777344,
                0.019006729125976562,
                -1.802486538887024
            ],
            "type" : "VEC3"
        },
        {
            "bufferView" : 5,
            "componentType" : 5126,
            "count" : 761,
            "type" : "VEC3"
        },
        {
            "bufferView" : 6,
            "componentType" : 5126,
            "count" : 761,
            "type" : "VEC2"
        },
        {
            "bufferView" : 7,
            "componentType" : 5123,
            "count" : 3402,
            "type" : "SCALAR"
        },
        {
            "bufferView" : 8,
            "componentType" : 5126,
            "count" : 2461,
            "max" : [
                0.7763268947601318,
                1.6177759170532227,
                0.4232214689254761
            ],
            "min" : [
                -0.1128091812133789,
                -0.10600090026855469,
                -0.8644654750823975
            ],
            "type" : "VEC3"
        },
        {
            "bufferView" : 9,
            "componentType" : 5126,
            "count" : 2461,
            "type" : "VEC3"
        },
        {
            "bufferView" : 10,
            "componentType" : 5126,
            "count" : 2461,
            "type" : "VEC2"
        },
        {
            "bufferView" : 11,
            "componentType" : 5123,
            "count" : 9675,
            "type" : "SCALAR"
        },
        {
            "bufferView" : 12,
            "componentType" : 5126,
            "count" : 770,
            "max" : [
                1.514341950416565,
                4.274632453918457,
                0.9291367530822754
            ],
            "min" : [
                -2.289391040802002,
                0.007785797119140625,
                -1.7240601778030396
            ],
            "type" : "VEC3"
        },
        {
            "bufferView" : 13,
            "componentType" : 5126,
            "count" : 770,
            "type" : "VEC3"
        },
        {
            "bufferView" : 14,
            "componentType" : 5126,
            "count" : 770,
            "type" : "VEC2"
        },
        {
            "bufferView" : 15,
            "componentType" : 5123,
            "count" : 3402,
            "type" : "SCALAR"
        },
        {
            "bufferView" : 16,
            "componentType" : 5126,
            "count" : 52,
            "max" : [
                0.567304790019989,
                0.4358530044555664,
                0.4565625786781311
            ],
            "min" : [
                -0.7006222009658813,
                -0.11575508117675781,
                -0.015391409397125244
            ],
            "type" : "VEC3"
        },
        {
            "bufferView" : 17,
            "componentType" : 5126,
            "count" : 52,
            "type" : "VEC3"
        },
        {
            "bufferView" : 18,
            "componentType" : 5126,
            "count" : 52,
            "type" : "VEC2"
        },
        {
            "bufferView" : 19,
            "componentType" : 5123,
            "count" : 156,
            "type" : "SCALAR"
        },
        {
            "bufferView" : 20,
            "componentType" : 5126,
            "count" : 1636,
            "max" : [
                0.8069286346435547,
                0.25790977478027344,
                1.2859272956848145
            ],
            "min" : [
                -0.7701783776283264,
                -2.5082406997680664,
                -0.5460426211357117
            ],
            "type" : "VEC3"
        },
        {
            "bufferView" : 21,
            "componentType" : 5126,
            "count" : 1636,
            "type" : "VEC3"
        },
        {
            "bufferView" : 22,
            "componentType" : 5126,
            "count" : 1636,
            "type" : "VEC2"
        },
        {
            "bufferView" : 23,
            "componentType" : 5123,
            "count" : 7248,
            "type" : "SCALAR"
        },
        {
            "bufferView" : 24,
            "componentType" : 5126,
            "count" : 1637,
            "max" : [
                1.6493377685546875,
                8.125910758972168,
                1.9861856698989868
            ],
            "min" : [
                -0.9906942844390869,
                -1.0888023376464844,
                -0.6129953861236572
            ],
            "type" : "VEC3"
        },
        {
            "bufferView" : 25,
            "componentType" : 5126,
            "count" : 1637,
            "type" : "VEC3"
        },
        {
            "bufferView" : 26,
            "componentType" : 5126,
            "count" : 1637,
            "type" : "VEC2"
        },
        {
            "bufferView" : 27,
            "componentType" : 5123,
            "count" : 7749,
            "type" : "SCALAR"
        },
        {
            "bufferView" : 28,
            "componentType" : 5126,
            "count" : 1553,
            "max" : [
                0.7064077854156494,
                8.133153915405273,
                1.97476065158844
            ],
            "min" : [
                -1.614889144897461,
                -1.0815553665161133,
                -0.6244204044342041
            ],
            "type" : "VEC3"
        },
        {
            "bufferView" : 29,
            "componentType" : 5126,
            "count" : 1553,
            "type" : "VEC3"
        },
        {
            "bufferView" : 30,
            "componentType" : 5126,
            "count" : 1553,
            "type" : "VEC2"
        },
        {
            "bufferView" : 31,
            "componentType" : 5123,
            "count" : 7473,
            "type" : "SCALAR"
        },
        {
            "bufferView" : 32,
            "componentType" : 5126,
            "count" : 1887,
            "max" : [
                1.810829997062683,
                -8.330565452575684,
                1.719694972038269
            ],
            "min" : [
                -1.807155966758728,
                -13.960199356079102,
                -1.2154849767684937
            ],
            "type" : "VEC3"
        },
        {
            "bufferView" : 33,
            "componentType" : 5126,
            "count" : 1887,
            "type" : "VEC3"
        },
        {
            "bufferView" : 34,
            "componentType" : 5126,
            "count" : 1887,
            "type" : "VEC2"
        },
        {
            "bufferView" : 35,
            "componentType" : 5123,
            "count" : 8316,
            "type" : "SCALAR"
        }
    ],
    "bufferViews" : [
        {
            "buffer" : 0,
            "byteLength" : 29760,
            "byteOffset" : 0
        },
        {
            "buffer" : 0,
            "byteLength" : 29760,
            "byteOffset" : 29760
        },
        {
            "buffer" : 0,
            "byteLength" : 19840,
            "byteOffset" : 59520
        },
        {
            "buffer" : 0,
            "byteLength" : 19350,
            "byteOffset" : 79360
        },
        {
            "buffer" : 0,
            "byteLength" : 9132,
            "byteOffset" : 98712
        },
        {
            "buffer" : 0,
            "byteLength" : 9132,
            "byteOffset" : 107844
        },
        {
            "buffer" : 0,
            "byteLength" : 6088,
            "byteOffset" : 116976
        },
        {
            "buffer" : 0,
            "byteLength" : 6804,
            "byteOffset" : 123064
        },
        {
            "buffer" : 0,
            "byteLength" : 29532,
            "byteOffset" : 129868
        },
        {
            "buffer" : 0,
            "byteLength" : 29532,
            "byteOffset" : 159400
        },
        {
            "buffer" : 0,
            "byteLength" : 19688,
            "byteOffset" : 188932
        },
        {
            "buffer" : 0,
            "byteLength" : 19350,
            "byteOffset" : 208620
        },
        {
            "buffer" : 0,
            "byteLength" : 9240,
            "byteOffset" : 227972
        },
        {
            "buffer" : 0,
            "byteLength" : 9240,
            "byteOffset" : 237212
        },
        {
            "buffer" : 0,
            "byteLength" : 6160,
            "byteOffset" : 246452
        },
        {
            "buffer" : 0,
            "byteLength" : 6804,
            "byteOffset" : 252612
        },
        {
            "buffer" : 0,
            "byteLength" : 624,
            "byteOffset" : 259416
        },
        {
            "buffer" : 0,
            "byteLength" : 624,
            "byteOffset" : 260040
        },
        {
            "buffer" : 0,
            "byteLength" : 416,
            "byteOffset" : 260664
        },
        {
            "buffer" : 0,
            "byteLength" : 312,
            "byteOffset" : 261080
        },
        {
            "buffer" : 0,
            "byteLength" : 19632,
            "byteOffset" : 261392
        },
        {
            "buffer" : 0,
            "byteLength" : 19632,
            "byteOffset" : 281024
        },
        {
            "buffer" : 0,
            "byteLength" : 13088,
            "byteOffset" : 300656
        },
        {
            "buffer" : 0,
            "byteLength" : 14496,
            "byteOffset" : 313744
        },
        {
            "buffer" : 0,
            "byteLength" : 19644,
            "byteOffset" : 328240
        },
        {
            "buffer" : 0,
            "byteLength" : 19644,
            "byteOffset" : 347884
        },
        {
            "buffer" : 0,
            "byteLength" : 13096,
            "byteOffset" : 367528
        },
        {
            "buffer" : 0,
            "byteLength" : 15498,
            "byteOffset" : 380624
        },
        {
            "buffer" : 0,
            "byteLength" : 18636,
            "byteOffset" : 396124
        },
        {
            "buffer" : 0,
            "byteLength" : 18636,
            "byteOffset" : 414760
        },
        {
            "buffer" : 0,
            "byteLength" : 12424,
            "byteOffset" : 433396
        },
        {
            "buffer" : 0,
            "byteLength" : 14946,
            "byteOffset" : 445820
        },
        {
            "buffer" : 0,
            "byteLength" : 22644,
            "byteOffset" : 460768
        },
        {
            "buffer" : 0,
            "byteLength" : 22644,
            "byteOffset" : 483412
        },
        {
            "buffer" : 0,
            "byteLength" : 15096,
            "byteOffset" : 506056
        },
        {
            "buffer" : 0,
            "byteLength" : 16632,
            "byteOffset" : 521152
        }
    ],
    "buffers" : [
        {
            "byteLength" : 537784,
            "uri" : "data:application/octet-stream;base64,"
        }
    ]
}
